<?xml version="1.0" standalone="no"?>
<!DOCTYPE svg PUBLIC "-//W3C//DTD SVG 20010904//EN"
 "http://www.w3.org/TR/2001/REC-SVG-20010904/DTD/svg10.dtd">
<svg version="1.0" xmlns="http://www.w3.org/2000/svg"
 width="260.000000pt" height="260.000000pt" viewBox="0 0 260.000000 260.000000"
 preserveAspectRatio="xMidYMid meet">
<metadata>
Created by potrace 1.11, written by Peter Selinger 2001-2013
</metadata>
<g transform="translate(0.000000,260.000000) scale(0.100000,-0.100000)"
fill="#000000" stroke="none">
<path d="M0 1300 l0 -1300 1300 0 1300 0 0 1300 0 1300 -1300 0 -1300 0 0
-1300z m1756 115 c298 -857 260 -774 357 -790 l37 -6 0 -104 0 -105 -300 0
-300 0 0 104 c0 116 -5 108 78 121 23 4 42 7 42 8 0 1 -18 56 -39 122 l-40
120 -288 3 -289 2 -37 -113 c-20 -62 -37 -118 -37 -124 0 -6 14 -14 30 -17 16
-3 44 -9 60 -12 l30 -6 0 -104 0 -104 -305 0 -305 0 0 105 0 104 38 6 c94 16
89 13 110 73 38 111 510 1457 517 1475 6 15 25 17 190 17 l182 0 269 -775z"/>
<path d="M1295 1769 c-11 -32 -195 -608 -195 -613 0 -3 90 -6 200 -6 136 0
200 3 200 11 0 11 -190 611 -196 618 -2 2 -6 -2 -9 -10z"/>
</g>
</svg>
